<svg xmlns="http://www.w3.org/2000/svg" width="390" height="844" viewBox="0 0 390 844"
     font-family="-apple-system, system-ui, sans-serif" stroke="none">
  <defs>
    <linearGradient id="hdr" x1="0" y1="0" x2="1" y2="1">
      <stop offset="0%" stop-color="#4F46E5"/>
      <stop offset="100%" stop-color="#7C3AED"/>
    </linearGradient>
  </defs>
  <rect width="390" height="844" fill="#EEF2FF"/>
  <!-- status bar -->
  <rect width="390" height="48" fill="#4F46E5"/>
  <text x="16" y="32" font-size="12" fill="#C7D2FE">9:41</text>
  <rect x="340" y="16" width="36" height="16" rx="3" fill="none" stroke="#C7D2FE" stroke-width="1.5"/>
  <rect x="342" y="19" width="24" height="10" rx="1" fill="#C7D2FE"/>
  <!-- header -->
  <rect x="0" y="48" width="390" height="56" fill="url(#hdr)"/>
  <text x="20" y="84" font-size="20" fill="#FFFFFF">←</text>
  <text x="195" y="84" font-size="18" font-weight="700" text-anchor="middle" fill="#FFFFFF">EMI Results</text>
  <text x="366" y="84" font-size="13" text-anchor="end" fill="#C7D2FE">Share</text>

  <!-- EMI hero -->
  <rect x="16" y="116" width="358" height="88" rx="16" fill="#1E293B"/>
  <text x="32" y="144" font-size="12" fill="#94A3B8">Monthly EMI</text>
  <text x="32" y="182" font-size="34" font-weight="800" fill="#FFFFFF">₹ 32,450</text>
  <text x="280" y="144" font-size="11" fill="#94A3B8">SBI Home Loan</text>
  <rect x="280" y="152" width="72" height="22" rx="11" fill="#312E81"/>
  <text x="316" y="167" font-size="11" text-anchor="middle" fill="#A5B4FC">20 yr · 8.5%</text>

  <!-- Donut -->
  <rect x="16" y="216" width="358" height="230" rx="16" fill="#FFFFFF"/>
  <text x="32" y="246" font-size="13" font-weight="700" fill="#1E293B">Payment Breakdown</text>
  <circle cx="195" cy="346" r="76" fill="none" stroke="#E0E7FF" stroke-width="24"/>
  <circle cx="195" cy="346" r="76" fill="none" stroke="#4F46E5" stroke-width="24"
          stroke-dasharray="277 200" stroke-dashoffset="0"
          transform="rotate(-90 195 346)"/>
  <circle cx="195" cy="346" r="76" fill="none" stroke="#7C3AED" stroke-width="24"
          stroke-dasharray="140 337" stroke-dashoffset="-277"
          transform="rotate(-90 195 346)"/>
  <text x="195" y="338" font-size="11" text-anchor="middle" fill="#64748B">Total Payable</text>
  <text x="195" y="360" font-size="16" font-weight="800" text-anchor="middle" fill="#1E293B">₹78.0L</text>
  <!-- legend -->
  <rect x="32" y="420" width="10" height="10" rx="2" fill="#4F46E5"/>
  <text x="48" y="431" font-size="12" fill="#1E293B">Principal  ₹50,00,000</text>
  <rect x="220" y="420" width="10" height="10" rx="2" fill="#7C3AED"/>
  <text x="236" y="431" font-size="12" fill="#1E293B">Interest  ₹28,08,093</text>

  <!-- Summary grid -->
  <rect x="16" y="458" width="172" height="76" rx="14" fill="#FFFFFF"/>
  <text x="32" y="480" font-size="11" fill="#64748B">Principal Amount</text>
  <text x="32" y="516" font-size="18" font-weight="700" fill="#4F46E5">₹50,00,000</text>

  <rect x="202" y="458" width="172" height="76" rx="14" fill="#FFFFFF"/>
  <text x="218" y="480" font-size="11" fill="#64748B">Total Interest</text>
  <text x="218" y="516" font-size="18" font-weight="700" fill="#7C3AED">₹28,08,093</text>

  <rect x="16" y="542" width="172" height="76" rx="14" fill="#FFFFFF"/>
  <text x="32" y="564" font-size="11" fill="#64748B">Total Amount</text>
  <text x="32" y="600" font-size="18" font-weight="700" fill="#059669">₹78,08,093</text>

  <rect x="202" y="542" width="172" height="76" rx="14" fill="#FFFFFF"/>
  <text x="218" y="564" font-size="11" fill="#64748B">Tenure</text>
  <text x="218" y="600" font-size="18" font-weight="700" fill="#1E293B">20 Years</text>

  <!-- action buttons -->
  <rect x="16" y="632" width="172" height="48" rx="14" fill="#4F46E5"/>
  <text x="102" y="662" font-size="13" font-weight="700" text-anchor="middle" fill="#FFFFFF">Amortize →</text>
  <rect x="202" y="632" width="172" height="48" rx="14" fill="#FFFFFF"/>
  <text x="288" y="662" font-size="13" font-weight="700" text-anchor="middle" fill="#4F46E5">Prepayment →</text>

  <!-- Save Loan -->
  <rect x="16" y="694" width="358" height="48" rx="14" fill="#E0E7FF"/>
  <text x="195" y="724" font-size="13" font-weight="700" text-anchor="middle" fill="#4F46E5">+ Save as Loan Reminder</text>

  <!-- bottom nav -->
  <rect x="0" y="796" width="390" height="48" fill="#FFFFFF"/>
  <rect x="0" y="796" width="390" height="1" fill="#E2E8F0"/>
  <text x="66" y="824" font-size="11" text-anchor="middle" fill="#94A3B8">Dashboard</text>
  <rect x="153" y="802" width="84" height="34" rx="17" fill="#EEF2FF"/>
  <text x="195" y="824" font-size="11" font-weight="700" text-anchor="middle" fill="#4F46E5">Calculator</text>
  <text x="324" y="824" font-size="11" text-anchor="middle" fill="#94A3B8">Reminders</text>
</svg>
