<svg xmlns="http://www.w3.org/2000/svg" width="390" height="844" viewBox="0 0 390 844"
     font-family="-apple-system, system-ui, sans-serif" stroke="none">
  <defs>
    <linearGradient id="hdr" x1="0" y1="0" x2="1" y2="1">
      <stop offset="0%" stop-color="#4F46E5"/>
      <stop offset="100%" stop-color="#7C3AED"/>
    </linearGradient>
  </defs>
  <rect width="390" height="844" fill="#EEF2FF"/>
  <!-- status bar -->
  <rect width="390" height="48" fill="#4F46E5"/>
  <text x="16" y="32" font-size="12" fill="#C7D2FE">9:41</text>
  <rect x="340" y="16" width="36" height="16" rx="3" fill="none" stroke="#C7D2FE" stroke-width="1.5"/>
  <rect x="342" y="19" width="24" height="10" rx="1" fill="#C7D2FE"/>
  <!-- header -->
  <rect x="0" y="48" width="390" height="56" fill="url(#hdr)"/>
  <text x="195" y="84" font-size="18" font-weight="700" text-anchor="middle" fill="#FFFFFF">Reminders</text>
  <rect x="330" y="65" width="44" height="28" rx="14" fill="#312E81"/>
  <text x="352" y="83" font-size="12" text-anchor="middle" fill="#A5B4FC">+ New</text>

  <!-- filter chips -->
  <rect x="16" y="116" width="72" height="28" rx="14" fill="#4F46E5"/>
  <text x="52" y="134" font-size="12" font-weight="600" text-anchor="middle" fill="#FFFFFF">All (4)</text>
  <rect x="96" y="116" width="84" height="28" rx="14" fill="#FFFFFF"/>
  <text x="138" y="134" font-size="12" text-anchor="middle" fill="#64748B">Overdue (1)</text>
  <rect x="188" y="116" width="76" height="28" rx="14" fill="#FFFFFF"/>
  <text x="226" y="134" font-size="12" text-anchor="middle" fill="#64748B">Due Soon</text>
  <rect x="272" y="116" width="64" height="28" rx="14" fill="#FFFFFF"/>
  <text x="304" y="134" font-size="12" text-anchor="middle" fill="#64748B">Paid</text>

  <!-- search -->
  <rect x="16" y="152" width="358" height="40" rx="12" fill="#FFFFFF"/>
  <text x="40" y="176" font-size="14" fill="#CBD5E1">🔍</text>
  <text x="62" y="176" font-size="13" fill="#94A3B8">Search loans…</text>

  <!-- card 1: OVERDUE -->
  <rect x="16" y="204" width="358" height="88" rx="16" fill="#FEF2F2"/>
  <rect x="16" y="204" width="5" height="88" rx="2.5" fill="#DC2626"/>
  <rect x="28" y="220" width="44" height="44" rx="12" fill="#FEE2E2"/>
  <text x="50" y="247" font-size="24" text-anchor="middle">🏠</text>
  <text x="84" y="234" font-size="14" font-weight="700" fill="#1E293B">SBI Home Loan</text>
  <text x="84" y="252" font-size="12" fill="#64748B">Due: 28 Jun 2026</text>
  <text x="84" y="270" font-size="11" fill="#DC2626">OVERDUE by 2 days</text>
  <text x="356" y="232" font-size="14" font-weight="700" text-anchor="end" fill="#1E293B">₹32,450</text>
  <rect x="296" y="244" width="60" height="22" rx="11" fill="#DC2626"/>
  <text x="326" y="259" font-size="10" font-weight="700" text-anchor="middle" fill="#FFFFFF">PAY NOW</text>

  <!-- card 2: DUE SOON -->
  <rect x="16" y="304" width="358" height="88" rx="16" fill="#FFFBEB"/>
  <rect x="16" y="304" width="5" height="88" rx="2.5" fill="#D97706"/>
  <rect x="28" y="320" width="44" height="44" rx="12" fill="#FEF3C7"/>
  <text x="50" y="347" font-size="24" text-anchor="middle">🚗</text>
  <text x="84" y="334" font-size="14" font-weight="700" fill="#1E293B">HDFC Car Loan</text>
  <text x="84" y="352" font-size="12" fill="#64748B">Due: 5 Jul 2026</text>
  <text x="84" y="370" font-size="11" fill="#D97706">Due in 5 days</text>
  <text x="356" y="332" font-size="14" font-weight="700" text-anchor="end" fill="#1E293B">₹10,941</text>
  <rect x="296" y="344" width="60" height="22" rx="11" fill="#FEF3C7"/>
  <text x="326" y="359" font-size="10" font-weight="700" text-anchor="middle" fill="#D97706">REMIND</text>

  <!-- card 3: NORMAL -->
  <rect x="16" y="404" width="358" height="88" rx="16" fill="#FFFFFF"/>
  <rect x="16" y="404" width="5" height="88" rx="2.5" fill="#4F46E5"/>
  <rect x="28" y="420" width="44" height="44" rx="12" fill="#EEF2FF"/>
  <text x="50" y="447" font-size="22" text-anchor="middle">💳</text>
  <text x="84" y="434" font-size="14" font-weight="700" fill="#1E293B">ICICI Personal Loan</text>
  <text x="84" y="452" font-size="12" fill="#64748B">Due: 10 Jul 2026</text>
  <text x="84" y="470" font-size="11" fill="#4F46E5">Due in 10 days</text>
  <text x="356" y="432" font-size="14" font-weight="700" text-anchor="end" fill="#1E293B">₹8,500</text>
  <rect x="292" y="444" width="64" height="22" rx="11" fill="#EEF2FF"/>
  <text x="324" y="459" font-size="10" font-weight="600" text-anchor="middle" fill="#4F46E5">REMIND</text>

  <!-- card 4: PAID -->
  <rect x="16" y="504" width="358" height="88" rx="16" fill="#F0FDF4"/>
  <rect x="16" y="504" width="5" height="88" rx="2.5" fill="#059669"/>
  <rect x="28" y="520" width="44" height="44" rx="12" fill="#DCFCE7"/>
  <text x="50" y="547" font-size="22" text-anchor="middle">🏢</text>
  <text x="84" y="534" font-size="14" font-weight="700" fill="#1E293B">Axis Business Loan</text>
  <text x="84" y="552" font-size="12" fill="#64748B">Paid: 1 Jun 2026</text>
  <text x="84" y="570" font-size="11" fill="#059669">PAID ✓</text>
  <text x="356" y="540" font-size="14" font-weight="700" text-anchor="end" fill="#94A3B8">₹15,000</text>
  <rect x="292" y="552" width="64" height="22" rx="11" fill="#DCFCE7"/>
  <text x="324" y="567" font-size="10" font-weight="600" text-anchor="middle" fill="#059669">COMPLETED</text>

  <!-- FAB -->
  <circle cx="346" cy="740" r="28" fill="#4F46E5"/>
  <text x="346" y="748" font-size="28" font-weight="300" text-anchor="middle" fill="#FFFFFF">+</text>

  <!-- bottom nav -->
  <rect x="0" y="796" width="390" height="48" fill="#FFFFFF"/>
  <rect x="0" y="796" width="390" height="1" fill="#E2E8F0"/>
  <text x="66" y="824" font-size="11" text-anchor="middle" fill="#94A3B8">Dashboard</text>
  <text x="195" y="824" font-size="11" text-anchor="middle" fill="#94A3B8">Calculator</text>
  <rect x="282" y="802" width="84" height="34" rx="17" fill="#EEF2FF"/>
  <text x="324" y="824" font-size="11" font-weight="700" text-anchor="middle" fill="#4F46E5">Reminders</text>
</svg>
