<svg xmlns="http://www.w3.org/2000/svg" width="390" height="844" viewBox="0 0 390 844"
     font-family="-apple-system, system-ui, sans-serif" stroke="none">
  <defs>
    <linearGradient id="hdr" x1="0" y1="0" x2="1" y2="1">
      <stop offset="0%" stop-color="#2563EB"/>
      <stop offset="100%" stop-color="#4F46E5"/>
    </linearGradient>
  </defs>
  <rect width="390" height="844" fill="#EEF2FF"/>
  <!-- status bar -->
  <rect width="390" height="48" fill="#2563EB"/>
  <text x="16" y="32" font-size="12" fill="#BFDBFE">9:41</text>
  <rect x="340" y="16" width="36" height="16" rx="3" fill="none" stroke="#BFDBFE" stroke-width="1.5"/>
  <rect x="342" y="19" width="24" height="10" rx="1" fill="#BFDBFE"/>
  <!-- header -->
  <rect x="0" y="48" width="390" height="120" fill="url(#hdr)"/>
  <text x="20" y="84" font-size="20" fill="#FFFFFF">←</text>
  <text x="195" y="84" font-size="18" font-weight="700" text-anchor="middle" fill="#FFFFFF">SBI Home Loan</text>
  <text x="362" y="84" font-size="18" text-anchor="end" fill="#BFDBFE">⋮</text>
  <!-- loan badge -->
  <rect x="147" y="96" width="96" height="22" rx="11" fill="#1D4ED8"/>
  <text x="195" y="111" font-size="11" text-anchor="middle" fill="#BFDBFE">Reducing · 8.5% p.a.</text>
  <!-- key figure -->
  <text x="195" y="152" font-size="12" text-anchor="middle" fill="#BFDBFE">Monthly EMI</text>
  <text x="195" y="156" font-size="0" fill="none"/><!-- spacer -->

  <!-- hero stat -->
  <rect x="16" y="164" width="358" height="70" rx="14" fill="#1E293B"/>
  <text x="32" y="192" font-size="11" fill="#94A3B8">Monthly EMI</text>
  <text x="32" y="224" font-size="28" font-weight="800" fill="#FFFFFF">₹ 32,450</text>
  <rect x="248" y="178" width="108" height="36" rx="10" fill="#312E81"/>
  <text x="260" y="194" font-size="10" fill="#94A3B8">Next Due</text>
  <text x="260" y="208" font-size="13" font-weight="700" fill="#F87171">5 Jul 2026</text>

  <!-- info grid -->
  <rect x="16" y="246" width="172" height="68" rx="14" fill="#FFFFFF"/>
  <text x="32" y="270" font-size="11" fill="#64748B">Principal</text>
  <text x="32" y="300" font-size="17" font-weight="700" fill="#1E293B">₹50,00,000</text>

  <rect x="202" y="246" width="172" height="68" rx="14" fill="#FFFFFF"/>
  <text x="218" y="270" font-size="11" fill="#64748B">Outstanding</text>
  <text x="218" y="300" font-size="17" font-weight="700" fill="#DC2626">₹38,46,000</text>

  <rect x="16" y="322" width="172" height="68" rx="14" fill="#FFFFFF"/>
  <text x="32" y="346" font-size="11" fill="#64748B">Rate of Interest</text>
  <text x="32" y="376" font-size="17" font-weight="700" fill="#1E293B">8.5% p.a.</text>

  <rect x="202" y="322" width="172" height="68" rx="14" fill="#FFFFFF"/>
  <text x="218" y="346" font-size="11" fill="#64748B">Tenure Remaining</text>
  <text x="218" y="376" font-size="17" font-weight="700" fill="#1E293B">16 yr 4 mo</text>

  <!-- progress bar -->
  <rect x="16" y="402" width="358" height="60" rx="14" fill="#FFFFFF"/>
  <text x="32" y="424" font-size="11" fill="#64748B">Loan Progress</text>
  <rect x="32" y="434" width="322" height="8" rx="4" fill="#E0E7FF"/>
  <rect x="32" y="434" width="120" height="8" rx="4" fill="#2563EB"/>
  <text x="32" y="454" font-size="10" fill="#64748B">Paid ₹11.5L (23%)</text>
  <text x="354" y="454" font-size="10" text-anchor="end" fill="#94A3B8">Remaining ₹38.5L</text>

  <!-- EMI history mini -->
  <rect x="16" y="474" width="358" height="178" rx="16" fill="#FFFFFF"/>
  <text x="32" y="502" font-size="13" font-weight="700" fill="#1E293B">EMI Payment History</text>
  <text x="320" y="502" font-size="12" fill="#4F46E5">All →</text>
  <!-- rows -->
  <text x="32" y="530" font-size="12" fill="#64748B">Jun 2026</text>
  <rect x="180" y="520" width="60" height="20" rx="10" fill="#DCFCE7"/>
  <text x="210" y="534" font-size="11" text-anchor="middle" fill="#059669">Paid ✓</text>
  <text x="356" y="530" font-size="12" font-weight="600" text-anchor="end" fill="#1E293B">₹32,450</text>

  <text x="32" y="558" font-size="12" fill="#64748B">May 2026</text>
  <rect x="180" y="548" width="60" height="20" rx="10" fill="#DCFCE7"/>
  <text x="210" y="562" font-size="11" text-anchor="middle" fill="#059669">Paid ✓</text>
  <text x="356" y="558" font-size="12" font-weight="600" text-anchor="end" fill="#1E293B">₹32,450</text>

  <text x="32" y="586" font-size="12" fill="#64748B">Apr 2026</text>
  <rect x="180" y="576" width="60" height="20" rx="10" fill="#DCFCE7"/>
  <text x="210" y="590" font-size="11" text-anchor="middle" fill="#059669">Paid ✓</text>
  <text x="356" y="586" font-size="12" font-weight="600" text-anchor="end" fill="#1E293B">₹32,450</text>

  <text x="32" y="614" font-size="12" fill="#64748B">Mar 2026</text>
  <rect x="180" y="604" width="60" height="20" rx="10" fill="#FEE2E2"/>
  <text x="210" y="618" font-size="11" text-anchor="middle" fill="#DC2626">Late</text>
  <text x="356" y="614" font-size="12" font-weight="600" text-anchor="end" fill="#DC2626">₹32,450</text>

  <text x="32" y="642" font-size="12" fill="#64748B">Feb 2026</text>
  <rect x="180" y="632" width="60" height="20" rx="10" fill="#DCFCE7"/>
  <text x="210" y="646" font-size="11" text-anchor="middle" fill="#059669">Paid ✓</text>
  <text x="356" y="642" font-size="12" font-weight="600" text-anchor="end" fill="#1E293B">₹32,450</text>

  <!-- action buttons -->
  <rect x="16" y="664" width="172" height="48" rx="14" fill="#4F46E5"/>
  <text x="102" y="694" font-size="13" font-weight="700" text-anchor="middle" fill="#FFFFFF">Amortize</text>
  <rect x="202" y="664" width="172" height="48" rx="14" fill="#E0E7FF"/>
  <text x="288" y="694" font-size="13" font-weight="700" text-anchor="middle" fill="#4F46E5">Prepay</text>

  <!-- bottom nav -->
  <rect x="0" y="796" width="390" height="48" fill="#FFFFFF"/>
  <rect x="0" y="796" width="390" height="1" fill="#E2E8F0"/>
  <text x="66" y="824" font-size="11" text-anchor="middle" fill="#94A3B8">Home</text>
  <text x="195" y="824" font-size="11" text-anchor="middle" fill="#94A3B8">Calculator</text>
  <text x="324" y="824" font-size="11" text-anchor="middle" fill="#94A3B8">Reminders</text>
</svg>
