<svg xmlns="http://www.w3.org/2000/svg" width="390" height="844" viewBox="0 0 390 844"
     font-family="-apple-system, system-ui, sans-serif" stroke="none">
  <defs>
    <linearGradient id="hdr" x1="0" y1="0" x2="1" y2="1">
      <stop offset="0%" stop-color="#4F46E5"/>
      <stop offset="100%" stop-color="#7C3AED"/>
    </linearGradient>
    <linearGradient id="loanA" x1="0" y1="0" x2="1" y2="1">
      <stop offset="0%" stop-color="#4F46E5"/>
      <stop offset="100%" stop-color="#6366F1"/>
    </linearGradient>
    <linearGradient id="loanB" x1="0" y1="0" x2="1" y2="1">
      <stop offset="0%" stop-color="#0891B2"/>
      <stop offset="100%" stop-color="#0E7490"/>
    </linearGradient>
  </defs>
  <rect width="390" height="844" fill="#EEF2FF"/>
  <!-- status bar -->
  <rect width="390" height="48" fill="#4F46E5"/>
  <text x="16" y="32" font-size="12" fill="#C7D2FE">9:41</text>
  <rect x="340" y="16" width="36" height="16" rx="3" fill="none" stroke="#C7D2FE" stroke-width="1.5"/>
  <rect x="342" y="19" width="24" height="10" rx="1" fill="#C7D2FE"/>
  <!-- header -->
  <rect x="0" y="48" width="390" height="56" fill="url(#hdr)"/>
  <text x="20" y="84" font-size="20" fill="#FFFFFF">←</text>
  <text x="195" y="84" font-size="18" font-weight="700" text-anchor="middle" fill="#FFFFFF">Loan Comparison</text>

  <!-- Loan A input -->
  <rect x="16" y="116" width="172" height="130" rx="16" fill="url(#loanA)"/>
  <text x="32" y="140" font-size="12" font-weight="700" fill="#E0E7FF">Loan A (SBI)</text>
  <text x="32" y="164" font-size="11" fill="#A5B4FC">Amount</text>
  <text x="32" y="184" font-size="16" font-weight="700" fill="#FFFFFF">₹50,00,000</text>
  <text x="32" y="202" font-size="11" fill="#A5B4FC">Rate</text>
  <text x="32" y="220" font-size="16" font-weight="700" fill="#FFFFFF">8.5%  20 yr</text>
  <text x="145" y="220" font-size="11" fill="#A5B4FC">✏</text>

  <!-- Loan B input -->
  <rect x="202" y="116" width="172" height="130" rx="16" fill="url(#loanB)"/>
  <text x="218" y="140" font-size="12" font-weight="700" fill="#BAE6FD">Loan B (HDFC)</text>
  <text x="218" y="164" font-size="11" fill="#7DD3FC">Amount</text>
  <text x="218" y="184" font-size="16" font-weight="700" fill="#FFFFFF">₹50,00,000</text>
  <text x="218" y="202" font-size="11" fill="#7DD3FC">Rate</text>
  <text x="218" y="220" font-size="16" font-weight="700" fill="#FFFFFF">8.0%  20 yr</text>
  <text x="331" y="220" font-size="11" fill="#7DD3FC">✏</text>

  <!-- VS badge -->
  <circle cx="195" cy="181" r="16" fill="#FFFFFF"/>
  <text x="195" y="186" font-size="12" font-weight="800" text-anchor="middle" fill="#4F46E5">VS</text>

  <!-- comparison rows -->
  <rect x="16" y="258" width="358" height="36" rx="8" fill="#4F46E5"/>
  <text x="32" y="280" font-size="11" font-weight="700" fill="#FFFFFF">Metric</text>
  <text x="148" y="280" font-size="11" font-weight="700" fill="#FFFFFF">Loan A (SBI)</text>
  <text x="282" y="280" font-size="11" font-weight="700" fill="#FFFFFF">Loan B (HDFC)</text>

  <!-- row 1 -->
  <rect x="16" y="294" width="358" height="36" fill="#FFFFFF"/>
  <text x="32" y="316" font-size="12" fill="#64748B">Monthly EMI</text>
  <text x="148" y="316" font-size="12" font-weight="700" fill="#1E293B">₹32,450</text>
  <rect x="270" y="304" width="90" height="20" rx="10" fill="#DCFCE7"/>
  <text x="315" y="318" font-size="11" font-weight="700" text-anchor="middle" fill="#059669">₹30,719 ✓</text>

  <!-- row 2 -->
  <rect x="16" y="330" width="358" height="36" fill="#F8FAFC"/>
  <text x="32" y="352" font-size="12" fill="#64748B">Total Interest</text>
  <text x="148" y="352" font-size="12" font-weight="700" fill="#DC2626">₹28.1L</text>
  <rect x="270" y="340" width="90" height="20" rx="10" fill="#DCFCE7"/>
  <text x="315" y="354" font-size="11" font-weight="700" text-anchor="middle" fill="#059669">₹23.7L ✓</text>

  <!-- row 3 -->
  <rect x="16" y="366" width="358" height="36" fill="#FFFFFF"/>
  <text x="32" y="388" font-size="12" fill="#64748B">Total Amount</text>
  <text x="148" y="388" font-size="12" font-weight="700" fill="#1E293B">₹78.1L</text>
  <rect x="270" y="376" width="90" height="20" rx="10" fill="#DCFCE7"/>
  <text x="315" y="390" font-size="11" font-weight="700" text-anchor="middle" fill="#059669">₹73.7L ✓</text>

  <!-- row 4 -->
  <rect x="16" y="402" width="358" height="36" fill="#F8FAFC"/>
  <text x="32" y="424" font-size="12" fill="#64748B">Interest %</text>
  <text x="148" y="424" font-size="12" font-weight="700" fill="#1E293B">56.2%</text>
  <rect x="270" y="412" width="90" height="20" rx="10" fill="#DCFCE7"/>
  <text x="315" y="426" font-size="11" font-weight="700" text-anchor="middle" fill="#059669">47.4% ✓</text>

  <!-- savings banner -->
  <rect x="16" y="450" width="358" height="60" rx="14" fill="#059669"/>
  <text x="195" y="474" font-size="14" font-weight="700" text-anchor="middle" fill="#FFFFFF">Loan B saves you ₹4,41,120</text>
  <text x="195" y="496" font-size="12" text-anchor="middle" fill="#A7F3D0">₹1,731/mo less over 20 years</text>

  <!-- bar chart comparison -->
  <rect x="16" y="522" width="358" height="170" rx="16" fill="#FFFFFF"/>
  <text x="32" y="548" font-size="13" font-weight="700" fill="#1E293B">EMI Outflow Over Time</text>
  <!-- A bars -->
  <rect x="52" y="590" width="30" height="70" rx="4" fill="#4F46E5"/>
  <rect x="52" y="590" width="30" height="45" rx="4" fill="#6366F1"/>
  <text x="67" y="676" font-size="9" text-anchor="middle" fill="#94A3B8">Yr 1</text>
  <rect x="130" y="600" width="30" height="60" rx="4" fill="#4F46E5"/>
  <text x="145" y="676" font-size="9" text-anchor="middle" fill="#94A3B8">Yr 5</text>
  <rect x="208" y="614" width="30" height="46" rx="4" fill="#4F46E5"/>
  <text x="223" y="676" font-size="9" text-anchor="middle" fill="#94A3B8">Yr 10</text>
  <rect x="286" y="628" width="30" height="32" rx="4" fill="#4F46E5"/>
  <text x="301" y="676" font-size="9" text-anchor="middle" fill="#94A3B8">Yr 20</text>
  <!-- B bars (teal, slightly shorter) -->
  <rect x="84" y="598" width="30" height="62" rx="4" fill="#0891B2"/>
  <rect x="162" y="608" width="30" height="52" rx="4" fill="#0891B2"/>
  <rect x="240" y="622" width="30" height="38" rx="4" fill="#0891B2"/>
  <rect x="318" y="636" width="30" height="24" rx="4" fill="#0891B2"/>
  <!-- legend -->
  <rect x="32" y="684" width="9" height="9" rx="2" fill="#4F46E5"/>
  <text x="46" y="693" font-size="10" fill="#64748B">Loan A (SBI)</text>
  <rect x="136" y="684" width="9" height="9" rx="2" fill="#0891B2"/>
  <text x="150" y="693" font-size="10" fill="#64748B">Loan B (HDFC)</text>

  <!-- CTA -->
  <rect x="16" y="706" width="358" height="48" rx="14" fill="#4F46E5"/>
  <text x="195" y="736" font-size="14" font-weight="700" text-anchor="middle" fill="#FFFFFF">Choose Loan B — Save ₹4.4L</text>

  <!-- bottom nav -->
  <rect x="0" y="796" width="390" height="48" fill="#FFFFFF"/>
  <rect x="0" y="796" width="390" height="1" fill="#E2E8F0"/>
  <text x="66" y="824" font-size="11" text-anchor="middle" fill="#94A3B8">Home</text>
  <rect x="153" y="802" width="84" height="34" rx="17" fill="#EEF2FF"/>
  <text x="195" y="824" font-size="11" font-weight="700" text-anchor="middle" fill="#4F46E5">Calculator</text>
  <text x="324" y="824" font-size="11" text-anchor="middle" fill="#94A3B8">Reminders</text>
</svg>
