<svg xmlns="http://www.w3.org/2000/svg" width="390" height="844" viewBox="0 0 390 844"
     font-family="-apple-system, system-ui, sans-serif" stroke="none">
  <defs>
    <linearGradient id="hdr" x1="0" y1="0" x2="1" y2="1">
      <stop offset="0%" stop-color="#4F46E5"/>
      <stop offset="100%" stop-color="#7C3AED"/>
    </linearGradient>
  </defs>
  <rect width="390" height="844" fill="#EEF2FF"/>

  <!-- status bar -->
  <rect width="390" height="48" fill="#4F46E5"/>
  <text x="16" y="32" font-size="12" fill="#C7D2FE">9:41</text>
  <rect x="340" y="16" width="36" height="16" rx="3" fill="none" stroke="#C7D2FE" stroke-width="1.5"/>
  <rect x="342" y="19" width="24" height="10" rx="1" fill="#C7D2FE"/>

  <!-- header -->
  <rect x="0" y="48" width="390" height="72" fill="url(#hdr)"/>
  <text x="195" y="78" font-size="18" font-weight="700" text-anchor="middle" fill="#FFFFFF">Finance</text>
  <!-- year toggle -->
  <rect x="155" y="86" width="80" height="24" rx="12" fill="#312E81"/>
  <text x="195" y="102" font-size="12" font-weight="700" text-anchor="middle" fill="#C7D2FE">2026  ▾</text>

  <!-- Month horizontal scroll -->
  <rect x="0" y="120" width="390" height="54" fill="#FFFFFF"/>
  <rect x="0" y="120" width="390" height="1" fill="#E2E8F0"/>
  <!-- months -->
  <rect x="8" y="129" width="38" height="36" rx="8" fill="#EEF2FF"/>
  <text x="27" y="148" font-size="10" text-anchor="middle" fill="#64748B">Jan</text>
  <rect x="52" y="129" width="38" height="36" rx="8" fill="#EEF2FF"/>
  <text x="71" y="148" font-size="10" text-anchor="middle" fill="#64748B">Feb</text>
  <rect x="96" y="129" width="38" height="36" rx="8" fill="#EEF2FF"/>
  <text x="115" y="148" font-size="10" text-anchor="middle" fill="#64748B">Mar</text>
  <rect x="140" y="129" width="38" height="36" rx="8" fill="#EEF2FF"/>
  <text x="159" y="148" font-size="10" text-anchor="middle" fill="#64748B">Apr</text>
  <rect x="184" y="129" width="38" height="36" rx="8" fill="#EEF2FF"/>
  <text x="203" y="148" font-size="10" text-anchor="middle" fill="#64748B">May</text>
  <!-- ACTIVE: Jun -->
  <rect x="228" y="125" width="46" height="44" rx="10" fill="#4F46E5"/>
  <text x="251" y="143" font-size="10" font-weight="700" text-anchor="middle" fill="#C7D2FE">Jun</text>
  <text x="251" y="159" font-size="14" font-weight="800" text-anchor="middle" fill="#FFFFFF">30</text>
  <rect x="280" y="129" width="38" height="36" rx="8" fill="#EEF2FF"/>
  <text x="299" y="148" font-size="10" text-anchor="middle" fill="#64748B">Jul</text>
  <rect x="324" y="129" width="38" height="36" rx="8" fill="#EEF2FF"/>
  <text x="343" y="148" font-size="10" text-anchor="middle" fill="#64748B">Aug</text>

  <!-- Monthly Summary card -->
  <rect x="16" y="186" width="358" height="72" rx="14" fill="#1E293B"/>
  <text x="32" y="210" font-size="11" fill="#94A3B8">June 2026 — 3 Loans</text>
  <text x="32" y="242" font-size="26" font-weight="800" fill="#FFFFFF">₹ 51,891</text>
  <!-- mini progress bars right -->
  <text x="280" y="208" font-size="10" fill="#64748B">Paid</text>
  <rect x="280" y="214" width="80" height="6" rx="3" fill="#374151"/>
  <rect x="280" y="214" width="56" height="6" rx="3" fill="#059669"/>
  <text x="280" y="230" font-size="10" fill="#64748B">₹43,391 / ₹51,891</text>
  <rect x="280" y="238" width="80" height="20" rx="10" fill="#059669"/>
  <text x="320" y="252" font-size="10" font-weight="700" text-anchor="middle" fill="#FFFFFF">84% paid</text>

  <!-- filter chips -->
  <rect x="16" y="270" width="56" height="26" rx="13" fill="#4F46E5"/>
  <text x="44" y="287" font-size="11" font-weight="600" text-anchor="middle" fill="#FFFFFF">All (3)</text>
  <rect x="80" y="270" width="64" height="26" rx="13" fill="#FFFFFF"/>
  <text x="112" y="287" font-size="11" text-anchor="middle" fill="#64748B">Paid (2)</text>
  <rect x="152" y="270" width="80" height="26" rx="13" fill="#FFFFFF"/>
  <text x="192" y="287" font-size="11" text-anchor="middle" fill="#64748B">Upcoming (1)</text>

  <!-- ── EMI ROWS for June 2026 ── -->

  <!-- EMI 1: SBI Home Loan — PAID -->
  <rect x="16" y="308" width="358" height="80" rx="14" fill="#FFFFFF"/>
  <rect x="16" y="308" width="4" height="80" rx="2" fill="#2563EB"/>
  <!-- date badge -->
  <rect x="28" y="320" width="36" height="44" rx="8" fill="#EFF6FF"/>
  <text x="46" y="337" font-size="9" font-weight="600" text-anchor="middle" fill="#2563EB">JUN</text>
  <text x="46" y="355" font-size="16" font-weight="800" text-anchor="middle" fill="#2563EB">5</text>
  <!-- loan info -->
  <text x="76" y="334" font-size="14" font-weight="700" fill="#1E293B">SBI Home Loan</text>
  <text x="76" y="352" font-size="12" fill="#64748B">State Bank of India</text>
  <text x="76" y="370" font-size="11" fill="#64748B">EMI #48 of 240</text>
  <!-- amount + status -->
  <text x="356" y="334" font-size="15" font-weight="800" text-anchor="end" fill="#1E293B">₹32,450</text>
  <rect x="282" y="348" width="74" height="22" rx="11" fill="#DCFCE7"/>
  <text x="319" y="363" font-size="11" font-weight="700" text-anchor="middle" fill="#059669">PAID ✓ Jun 5</text>

  <!-- EMI 2: HDFC Car Loan — PAID -->
  <rect x="16" y="400" width="358" height="80" rx="14" fill="#FFFFFF"/>
  <rect x="16" y="400" width="4" height="80" rx="2" fill="#7C3AED"/>
  <rect x="28" y="412" width="36" height="44" rx="8" fill="#F3E8FF"/>
  <text x="46" y="429" font-size="9" font-weight="600" text-anchor="middle" fill="#7C3AED">JUN</text>
  <text x="46" y="447" font-size="16" font-weight="800" text-anchor="middle" fill="#7C3AED">10</text>
  <text x="76" y="426" font-size="14" font-weight="700" fill="#1E293B">HDFC Car Loan</text>
  <text x="76" y="444" font-size="12" fill="#64748B">HDFC Bank</text>
  <text x="76" y="462" font-size="11" fill="#64748B">EMI #12 of 60</text>
  <text x="356" y="426" font-size="15" font-weight="800" text-anchor="end" fill="#1E293B">₹10,941</text>
  <rect x="278" y="440" width="78" height="22" rx="11" fill="#DCFCE7"/>
  <text x="317" y="455" font-size="11" font-weight="700" text-anchor="middle" fill="#059669">PAID ✓ Jun 10</text>

  <!-- EMI 3: ICICI Personal — UPCOMING -->
  <rect x="16" y="492" width="358" height="80" rx="14" fill="#FFFFFF"/>
  <rect x="16" y="492" width="4" height="80" rx="2" fill="#F97316"/>
  <rect x="28" y="504" width="36" height="44" rx="8" fill="#FFF7ED"/>
  <text x="46" y="521" font-size="9" font-weight="600" text-anchor="middle" fill="#F97316">JUN</text>
  <text x="46" y="539" font-size="16" font-weight="800" text-anchor="middle" fill="#F97316">15</text>
  <text x="76" y="518" font-size="14" font-weight="700" fill="#1E293B">ICICI Personal Loan</text>
  <text x="76" y="536" font-size="12" fill="#64748B">ICICI Bank</text>
  <text x="76" y="554" font-size="11" fill="#64748B">EMI #6 of 24</text>
  <text x="356" y="518" font-size="15" font-weight="800" text-anchor="end" fill="#1E293B">₹8,500</text>
  <rect x="274" y="532" width="82" height="22" rx="11" fill="#FFF7ED"/>
  <text x="315" y="547" font-size="11" font-weight="700" text-anchor="middle" fill="#F97316">DUE Jun 15</text>

  <!-- Year view toggle -->
  <text x="16" y="598" font-size="11" font-weight="700" fill="#64748B">YEARLY EMI OUTFLOW — 2026</text>

  <!-- 12-month mini bar chart -->
  <rect x="16" y="606" width="358" height="130" rx="14" fill="#FFFFFF"/>
  <!-- bars for each month — 12 bars -->
  <rect x="32" y="690" width="18" height="20" rx="3" fill="#C7D2FE"/>  <!-- Jan: partial year data -->
  <text x="41" y="704" font-size="7" text-anchor="middle" fill="#94A3B8">J</text>
  <rect x="56" y="676" width="18" height="34" rx="3" fill="#C7D2FE"/>
  <text x="65" y="714" font-size="7" text-anchor="middle" fill="#94A3B8">F</text>
  <rect x="80" y="668" width="18" height="42" rx="3" fill="#C7D2FE"/>
  <text x="89" y="714" font-size="7" text-anchor="middle" fill="#94A3B8">M</text>
  <rect x="104" y="672" width="18" height="38" rx="3" fill="#C7D2FE"/>
  <text x="113" y="714" font-size="7" text-anchor="middle" fill="#94A3B8">A</text>
  <rect x="128" y="666" width="18" height="44" rx="3" fill="#C7D2FE"/>
  <text x="137" y="714" font-size="7" text-anchor="middle" fill="#94A3B8">M</text>
  <!-- Jun — active/highlighted -->
  <rect x="152" y="660" width="18" height="50" rx="3" fill="#4F46E5"/>
  <text x="161" y="714" font-size="7" font-weight="700" text-anchor="middle" fill="#4F46E5">J</text>
  <!-- future months lighter -->
  <rect x="176" y="668" width="18" height="42" rx="3" fill="#E0E7FF"/>
  <text x="185" y="714" font-size="7" text-anchor="middle" fill="#94A3B8">J</text>
  <rect x="200" y="672" width="18" height="38" rx="3" fill="#E0E7FF"/>
  <text x="209" y="714" font-size="7" text-anchor="middle" fill="#94A3B8">A</text>
  <rect x="224" y="670" width="18" height="40" rx="3" fill="#E0E7FF"/>
  <text x="233" y="714" font-size="7" text-anchor="middle" fill="#94A3B8">S</text>
  <rect x="248" y="666" width="18" height="44" rx="3" fill="#E0E7FF"/>
  <text x="257" y="714" font-size="7" text-anchor="middle" fill="#94A3B8">O</text>
  <rect x="272" y="668" width="18" height="42" rx="3" fill="#E0E7FF"/>
  <text x="281" y="714" font-size="7" text-anchor="middle" fill="#94A3B8">N</text>
  <rect x="296" y="664" width="18" height="46" rx="3" fill="#E0E7FF"/>
  <text x="305" y="714" font-size="7" text-anchor="middle" fill="#94A3B8">D</text>
  <!-- Y-axis labels -->
  <text x="320" y="670" font-size="9" fill="#94A3B8">₹51,891</text>
  <text x="320" y="710" font-size="9" fill="#94A3B8">₹0</text>
  <!-- chart title -->
  <text x="32" y="628" font-size="12" font-weight="700" fill="#1E293B">Total per Month</text>
  <text x="32" y="646" font-size="11" fill="#64748B">Annual outflow: ₹6,22,692</text>

  <!-- bottom nav — 4 tabs with icons — Finance active -->
  <rect x="0" y="796" width="390" height="48" fill="#FFFFFF"/>
  <rect x="0" y="796" width="390" height="1" fill="#E2E8F0"/>
  <!-- Home -->
  <text x="49" y="815" font-size="16" text-anchor="middle" fill="#94A3B8">🏠</text>
  <text x="49" y="834" font-size="9" text-anchor="middle" fill="#94A3B8">Home</text>
  <!-- Calculator -->
  <text x="147" y="815" font-size="16" text-anchor="middle" fill="#94A3B8">⚡</text>
  <text x="147" y="834" font-size="9" text-anchor="middle" fill="#94A3B8">Calculator</text>
  <!-- Reminders -->
  <text x="244" y="815" font-size="16" text-anchor="middle" fill="#94A3B8">🔔</text>
  <text x="244" y="834" font-size="9" text-anchor="middle" fill="#94A3B8">Reminders</text>
  <!-- active: Finance -->
  <rect x="298" y="798" width="88" height="44" rx="12" fill="#EEF2FF"/>
  <text x="342" y="815" font-size="16" text-anchor="middle" fill="#4F46E5">💰</text>
  <text x="342" y="834" font-size="9" font-weight="700" text-anchor="middle" fill="#4F46E5">Finance</text>

  <!-- annotations -->
  <circle cx="14" cy="240" r="12" fill="#1E293B" stroke="#d33" stroke-dasharray="4 2" stroke-width="1.5"/>
  <text x="14" y="244" font-size="12" font-weight="700" text-anchor="middle" fill="#d33">1</text>
  <circle cx="14" cy="348" r="12" fill="#FFFFFF" stroke="#d33" stroke-dasharray="4 2" stroke-width="1.5"/>
  <text x="14" y="352" font-size="12" font-weight="700" text-anchor="middle" fill="#d33">2</text>
  <circle cx="14" cy="532" r="12" fill="#FFFFFF" stroke="#d33" stroke-dasharray="4 2" stroke-width="1.5"/>
  <text x="14" y="536" font-size="12" font-weight="700" text-anchor="middle" fill="#d33">3</text>
  <circle cx="14" cy="670" r="12" fill="#FFFFFF" stroke="#d33" stroke-dasharray="4 2" stroke-width="1.5"/>
  <text x="14" y="674" font-size="12" font-weight="700" text-anchor="middle" fill="#d33">4</text>
</svg>
