<svg xmlns="http://www.w3.org/2000/svg" width="1440" height="400" viewBox="0 0 1440 400"
     font-family="-apple-system, system-ui, sans-serif" fill="#fff" stroke="#000" stroke-width="1.5">
  <!-- flow diagram: 7 screens in horizontal sequence -->

  <rect width="1440" height="400" fill="#fafaf8" stroke="none" />

  <!-- title -->
  <text x="24" y="32" font-size="20" font-weight="700" stroke="none" fill="#000">EMI Reminder — App Flow</text>
  <text x="24" y="56" font-size="14" stroke="none" fill="#666">→ solid: primary path · - - →: branch/optional · User journey from launch to paid</text>
  <line x1="24" y1="68" x2="1416" y2="68" stroke="#e5e5e0" stroke-width="1" />

  <!-- helper: phone frame at x, y with label -->
  <!-- Screen 1: Splash (x=24) -->
  <g transform="translate(24, 88)">
    <rect width="120" height="208" rx="10" fill="#fff" stroke="#000" stroke-width="1.5" />
    <!-- dark splash bg -->
    <rect x="2" y="2" width="116" height="204" rx="9" fill="#222" stroke="none" />
    <circle cx="60" cy="80" r="22" fill="none" stroke="#fff" stroke-width="1.5" />
    <text x="60" y="88" font-size="16" text-anchor="middle" stroke="none" fill="#fff">₹</text>
    <text x="60" y="120" font-size="9" font-weight="700" text-anchor="middle" stroke="none" fill="#fff">EMI Reminder</text>
    <text x="60" y="134" font-size="7" text-anchor="middle" stroke="none" fill="#888">Your Smart Loan Manager</text>
    <circle cx="52" cy="168" r="3" fill="#fff" stroke="none" />
    <circle cx="60" cy="168" r="3" fill="#555" stroke="none" />
    <circle cx="68" cy="168" r="3" fill="#555" stroke="none" />
    <!-- screen label -->
    <text x="60" y="228" font-size="11" font-weight="600" text-anchor="middle" stroke="none" fill="#000">1. Splash</text>
    <text x="60" y="242" font-size="10" text-anchor="middle" stroke="none" fill="#666">Launch</text>
  </g>

  <!-- arrow 1→2 -->
  <line x1="148" y1="192" x2="176" y2="192" stroke="#000" stroke-width="1.5" />
  <polygon points="176,192 170,188 170,196" fill="#000" stroke="none" />

  <!-- Screen 2: Home Dashboard (x=184) -->
  <g transform="translate(184, 88)">
    <rect width="120" height="208" rx="10" fill="#fff" stroke="#000" stroke-width="1.5" />
    <rect x="2" y="2" width="116" height="14" rx="0" fill="#eee" stroke="none" />
    <text x="60" y="13" font-size="6" text-anchor="middle" stroke="none" fill="#666">9:41</text>
    <!-- header -->
    <rect x="6" y="20" width="108" height="24" rx="0" fill="#fff" stroke="none" />
    <circle cx="18" cy="32" r="8" fill="#e6e6e6" stroke="none" />
    <text x="36" y="36" font-size="7" stroke="none" fill="#000">Good morning, Raj</text>
    <!-- 3 summary cards -->
    <rect x="6" y="48" width="50" height="28" rx="4" fill="#e6e6e6" stroke="none" />
    <text x="31" y="60" font-size="6" text-anchor="middle" stroke="none" fill="#000">3 Loans</text>
    <text x="31" y="70" font-size="8" font-weight="700" text-anchor="middle" stroke="none" fill="#000">Active</text>
    <rect x="64" y="48" width="50" height="28" rx="4" fill="#e6e6e6" stroke="none" />
    <text x="89" y="60" font-size="6" text-anchor="middle" stroke="none" fill="#000">Next Due</text>
    <text x="89" y="70" font-size="8" font-weight="700" text-anchor="middle" stroke="none" fill="#000">3 Days</text>
    <rect x="6" y="80" width="108" height="20" rx="4" fill="#000" stroke="none" />
    <text x="60" y="93" font-size="7" text-anchor="middle" stroke="none" fill="#fff">₹43,391 / month</text>
    <!-- quick actions -->
    <text x="6" y="114" font-size="6" stroke="none" fill="#666">QUICK ACTIONS</text>
    <rect x="6" y="118" width="30" height="24" rx="4" fill="#e6e6e6" stroke="none" />
    <text x="21" y="133" font-size="8" text-anchor="middle" stroke="none" fill="#000">=</text>
    <rect x="45" y="118" width="30" height="24" rx="4" fill="#e6e6e6" stroke="none" />
    <text x="60" y="133" font-size="8" text-anchor="middle" stroke="none" fill="#000">+</text>
    <rect x="84" y="118" width="30" height="24" rx="4" fill="#e6e6e6" stroke="none" />
    <text x="99" y="133" font-size="8" text-anchor="middle" stroke="none" fill="#000">≡</text>
    <!-- bottom nav -->
    <rect x="0" y="190" width="120" height="18" fill="#fff" stroke="none" />
    <line x1="0" y1="190" x2="120" y2="190" stroke="#e5e5e0" stroke-width="0.5" />
    <rect x="16" y="194" width="28" height="10" rx="4" fill="#000" stroke="none" />
    <text x="30" y="202" font-size="5" text-anchor="middle" stroke="none" fill="#fff">Home</text>
    <text x="78" y="202" font-size="5" text-anchor="middle" stroke="none" fill="#888">Calc</text>
    <text x="104" y="202" font-size="5" text-anchor="middle" stroke="none" fill="#888">Remind</text>
    <!-- label -->
    <text x="60" y="228" font-size="11" font-weight="600" text-anchor="middle" stroke="none" fill="#000">2. Dashboard</text>
    <text x="60" y="242" font-size="10" text-anchor="middle" stroke="none" fill="#666">Home screen</text>
  </g>

  <!-- branch arrows from Dashboard -->
  <!-- → Calculator -->
  <line x1="308" y1="152" x2="344" y2="152" stroke="#000" stroke-width="1.5" />
  <polygon points="344,152 338,148 338,156" fill="#000" stroke="none" />
  <!-- → Reminders (dashed branch) -->
  <line x1="308" y1="232" x2="344" y2="232" stroke="#000" stroke-dasharray="4 3" stroke-width="1.5" />
  <polygon points="344,232 338,228 338,236" fill="#000" stroke="none" />

  <!-- Screen 3: EMI Calculator (x=352, y=56 for top position) -->
  <g transform="translate(352, 48)">
    <rect width="120" height="208" rx="10" fill="#fff" stroke="#000" stroke-width="1.5" />
    <rect x="2" y="2" width="116" height="14" rx="0" fill="#eee" stroke="none" />
    <text x="60" y="12" font-size="7" text-anchor="middle" stroke="none" fill="#000">EMI Calculator</text>
    <!-- tabs -->
    <rect x="6" y="18" width="108" height="18" rx="9" fill="#e6e6e6" stroke="none" />
    <rect x="8" y="20" width="34" height="14" rx="7" fill="#000" stroke="none" />
    <text x="25" y="30" font-size="6" text-anchor="middle" stroke="none" fill="#fff">Home</text>
    <text x="62" y="30" font-size="6" text-anchor="middle" stroke="none" fill="#666">Car</text>
    <text x="95" y="30" font-size="6" text-anchor="middle" stroke="none" fill="#666">Personal</text>
    <!-- fields -->
    <rect x="6" y="42" width="108" height="22" rx="4" fill="#f4f4f4" stroke="#e5e5e0" stroke-width="0.5" />
    <text x="12" y="56" font-size="8" stroke="none" fill="#000">₹ 50,00,000</text>
    <rect x="6" y="68" width="108" height="18" rx="4" fill="#f4f4f4" stroke="#e5e5e0" stroke-width="0.5" />
    <text x="12" y="81" font-size="8" stroke="none" fill="#000">8.5% p.a.</text>
    <rect x="6" y="90" width="108" height="18" rx="4" fill="#f4f4f4" stroke="#e5e5e0" stroke-width="0.5" />
    <text x="12" y="103" font-size="8" stroke="none" fill="#000">20 Years</text>
    <!-- CTA -->
    <rect x="6" y="114" width="108" height="22" rx="6" fill="#000" stroke="none" />
    <text x="60" y="128" font-size="8" text-anchor="middle" stroke="none" fill="#fff">Calculate EMI →</text>
    <!-- preview -->
    <rect x="6" y="142" width="108" height="40" rx="4" fill="#e6e6e6" stroke="none" />
    <text x="60" y="157" font-size="6" text-anchor="middle" stroke="none" fill="#666">Monthly EMI</text>
    <text x="60" y="170" font-size="11" font-weight="700" text-anchor="middle" stroke="none" fill="#000">₹43,391</text>
    <!-- bottom nav -->
    <rect x="0" y="190" width="120" height="18" fill="#fff" stroke="none" />
    <line x1="0" y1="190" x2="120" y2="190" stroke="#e5e5e0" stroke-width="0.5" />
    <text x="24" y="202" font-size="5" text-anchor="middle" stroke="none" fill="#888">Home</text>
    <rect x="42" y="194" width="36" height="10" rx="4" fill="#000" stroke="none" />
    <text x="60" y="202" font-size="5" text-anchor="middle" stroke="none" fill="#fff">Calc</text>
    <text x="100" y="202" font-size="5" text-anchor="middle" stroke="none" fill="#888">Remind</text>
    <!-- label -->
    <text x="60" y="228" font-size="11" font-weight="600" text-anchor="middle" stroke="none" fill="#000">3. Calculator</text>
    <text x="60" y="242" font-size="10" text-anchor="middle" stroke="none" fill="#666">Input values</text>
  </g>

  <!-- → Results -->
  <line x1="476" y1="152" x2="512" y2="152" stroke="#000" stroke-width="1.5" />
  <polygon points="512,152 506,148 506,156" fill="#000" stroke="none" />

  <!-- Screen 4: Results (x=520, y=48) -->
  <g transform="translate(520, 48)">
    <rect width="120" height="208" rx="10" fill="#fff" stroke="#000" stroke-width="1.5" />
    <rect x="2" y="2" width="116" height="14" rx="0" fill="#eee" stroke="none" />
    <text x="60" y="12" font-size="7" text-anchor="middle" stroke="none" fill="#000">← EMI Results</text>
    <!-- hero EMI -->
    <rect x="6" y="18" width="108" height="28" rx="6" fill="#000" stroke="none" />
    <text x="60" y="28" font-size="6" text-anchor="middle" stroke="none" fill="#888">Monthly EMI</text>
    <text x="60" y="40" font-size="11" font-weight="700" text-anchor="middle" stroke="none" fill="#fff">₹ 43,391</text>
    <!-- donut -->
    <circle cx="60" cy="82" r="24" fill="none" stroke="#e6e6e6" stroke-width="8" />
    <circle cx="60" cy="82" r="24" fill="none" stroke="#000" stroke-width="8"
            stroke-dasharray="76 75" stroke-dashoffset="0"
            transform="rotate(-90,60,82)" />
    <circle cx="60" cy="82" r="24" fill="none" stroke="#888" stroke-width="8"
            stroke-dasharray="69 82" stroke-dashoffset="-76"
            transform="rotate(-90,60,82)" />
    <text x="60" y="86" font-size="6" text-anchor="middle" stroke="none" fill="#000">₹1Cr</text>
    <!-- stats row -->
    <rect x="6" y="112" width="108" height="24" rx="4" fill="#e6e6e6" stroke="none" />
    <text x="30" y="128" font-size="6" text-anchor="middle" stroke="none" fill="#000">₹1Cr</text>
    <text x="60" y="128" font-size="6" text-anchor="middle" stroke="none" fill="#000">₹54L</text>
    <text x="90" y="128" font-size="6" text-anchor="middle" stroke="none" fill="#000">₹50L</text>
    <!-- table -->
    <rect x="6" y="142" width="108" height="10" rx="0" fill="#e6e6e6" stroke="none" />
    <text x="12" y="150" font-size="5" stroke="none" fill="#000">Month   EMI   Prin   Int</text>
    <line x1="6" y1="152" x2="114" y2="152" stroke="#e5e5e0" stroke-width="0.5" />
    <text x="12" y="162" font-size="5" stroke="none" fill="#666">Jan 25  43k  7.9k  35k</text>
    <line x1="6" y1="164" x2="114" y2="164" stroke="#e5e5e0" stroke-width="0.5" />
    <text x="12" y="174" font-size="5" stroke="none" fill="#666">Feb 25  43k  7.9k  35k</text>
    <line x1="6" y1="176" x2="114" y2="176" stroke="#e5e5e0" stroke-width="0.5" />
    <text x="12" y="186" font-size="5" stroke="none" fill="#999">↓ 238 more rows…</text>
    <!-- bottom nav -->
    <rect x="0" y="190" width="120" height="18" fill="#fff" stroke="none" />
    <line x1="0" y1="190" x2="120" y2="190" stroke="#e5e5e0" stroke-width="0.5" />
    <text x="24" y="202" font-size="5" text-anchor="middle" stroke="none" fill="#888">Home</text>
    <rect x="42" y="194" width="36" height="10" rx="4" fill="#000" stroke="none" />
    <text x="60" y="202" font-size="5" text-anchor="middle" stroke="none" fill="#fff">Calc</text>
    <text x="100" y="202" font-size="5" text-anchor="middle" stroke="none" fill="#888">Remind</text>
    <text x="60" y="228" font-size="11" font-weight="600" text-anchor="middle" stroke="none" fill="#000">4. Results</text>
    <text x="60" y="242" font-size="10" text-anchor="middle" stroke="none" fill="#666">EMI + chart</text>
  </g>

  <!-- Screen 5: Reminders List (x=352, y=168 — branched below) -->
  <g transform="translate(352, 168)">
    <rect width="120" height="208" rx="10" fill="#fff" stroke="#000" stroke-width="1.5" />
    <rect x="2" y="2" width="116" height="14" rx="0" fill="#eee" stroke="none" />
    <text x="60" y="12" font-size="7" text-anchor="middle" stroke="none" fill="#000">Loan Reminders</text>
    <!-- search -->
    <rect x="6" y="18" width="108" height="14" rx="7" fill="#e6e6e6" stroke="none" />
    <text x="60" y="28" font-size="6" text-anchor="middle" stroke="none" fill="#888">Search reminders…</text>
    <!-- card 1 -->
    <rect x="6" y="36" width="108" height="28" rx="4" fill="#fff" stroke="#e5e5e0" stroke-width="0.5" />
    <rect x="6" y="36" width="3" height="28" rx="1" fill="#000" stroke="none" />
    <text x="16" y="47" font-size="6" stroke="none" fill="#000">SBI Home Loan</text>
    <text x="16" y="57" font-size="5" stroke="none" fill="#666">₹32,450 · Due in 3d</text>
    <rect x="84" y="44" width="24" height="12" rx="6" fill="#000" stroke="none" />
    <circle cx="100" cy="50" r="4" fill="#fff" stroke="none" />
    <!-- card 2 -->
    <rect x="6" y="68" width="108" height="28" rx="4" fill="#fff" stroke="#e5e5e0" stroke-width="0.5" />
    <rect x="6" y="68" width="3" height="28" rx="1" fill="#888" stroke="none" />
    <text x="16" y="79" font-size="6" stroke="none" fill="#000">HDFC Car Loan</text>
    <text x="16" y="89" font-size="5" stroke="none" fill="#666">₹10,941 · Due in 12d</text>
    <rect x="84" y="76" width="24" height="12" rx="6" fill="#000" stroke="none" />
    <circle cx="100" cy="82" r="4" fill="#fff" stroke="none" />
    <!-- card 3 -->
    <rect x="6" y="100" width="108" height="28" rx="4" fill="#fff" stroke="#e5e5e0" stroke-width="0.5" />
    <rect x="6" y="100" width="3" height="28" rx="1" fill="#e6e6e6" stroke="none" />
    <text x="16" y="111" font-size="6" stroke="none" fill="#aaa">Axis Personal</text>
    <text x="16" y="121" font-size="5" stroke="none" fill="#bbb">Paused</text>
    <!-- FAB -->
    <circle cx="100" cy="160" r="12" fill="#000" stroke="none" />
    <text x="100" y="164" font-size="12" text-anchor="middle" stroke="none" fill="#fff">+</text>
    <!-- bottom nav -->
    <rect x="0" y="190" width="120" height="18" fill="#fff" stroke="none" />
    <line x1="0" y1="190" x2="120" y2="190" stroke="#e5e5e0" stroke-width="0.5" />
    <text x="24" y="202" font-size="5" text-anchor="middle" stroke="none" fill="#888">Home</text>
    <text x="60" y="202" font-size="5" text-anchor="middle" stroke="none" fill="#888">Calc</text>
    <rect x="82" y="194" width="36" height="10" rx="4" fill="#000" stroke="none" />
    <text x="100" y="202" font-size="5" text-anchor="middle" stroke="none" fill="#fff">Remind</text>
    <text x="60" y="228" font-size="11" font-weight="600" text-anchor="middle" stroke="none" fill="#000">5. Reminders</text>
    <text x="60" y="242" font-size="10" text-anchor="middle" stroke="none" fill="#666">All loans list</text>
  </g>

  <!-- arrow from Reminders → Add Sheet -->
  <line x1="476" y1="272" x2="512" y2="272" stroke="#000" stroke-dasharray="4 3" stroke-width="1.5" />
  <polygon points="512,272 506,268 506,276" fill="#000" stroke="none" />

  <!-- Screen 6: Add Reminder (x=520, y=168) -->
  <g transform="translate(520, 168)">
    <rect width="120" height="208" rx="10" fill="#fff" stroke="#000" stroke-width="1.5" />
    <!-- dimmed bg -->
    <rect x="2" y="2" width="116" height="136" rx="2" fill="#333" fill-opacity="0.5" stroke="none" />
    <!-- sheet -->
    <rect x="2" y="88" width="116" height="118" rx="6" fill="#fff" stroke="none" />
    <!-- handle -->
    <rect x="44" y="92" width="32" height="2" rx="1" fill="#e6e6e6" stroke="none" />
    <!-- title -->
    <text x="12" y="108" font-size="7" font-weight="700" stroke="none" fill="#000">Add Reminder</text>
    <!-- fields -->
    <rect x="8" y="114" width="104" height="14" rx="3" fill="#f4f4f4" stroke="#e5e5e0" stroke-width="0.5" />
    <text x="14" y="124" font-size="6" stroke="none" fill="#666">Loan name…</text>
    <!-- chips -->
    <rect x="8" y="132" width="28" height="12" rx="6" fill="#000" stroke="none" />
    <text x="22" y="141" font-size="5" text-anchor="middle" stroke="none" fill="#fff">Home</text>
    <rect x="40" y="132" width="22" height="12" rx="6" fill="#e6e6e6" stroke="none" />
    <text x="51" y="141" font-size="5" text-anchor="middle" stroke="none" fill="#666">Car</text>
    <rect x="66" y="132" width="28" height="12" rx="6" fill="#e6e6e6" stroke="none" />
    <text x="80" y="141" font-size="5" text-anchor="middle" stroke="none" fill="#666">Personal</text>
    <!-- EMI field large -->
    <rect x="8" y="148" width="104" height="18" rx="3" fill="#f4f4f4" stroke="#000" stroke-width="0.75" />
    <text x="14" y="161" font-size="9" font-weight="700" stroke="none" fill="#000">₹ 32,450</text>
    <!-- freq chips -->
    <rect x="8" y="170" width="24" height="10" rx="5" fill="#e6e6e6" stroke="none" />
    <text x="20" y="178" font-size="5" text-anchor="middle" stroke="none" fill="#666">Daily</text>
    <rect x="36" y="170" width="28" height="10" rx="5" fill="#e6e6e6" stroke="none" />
    <text x="50" y="178" font-size="5" text-anchor="middle" stroke="none" fill="#666">Weekly</text>
    <rect x="68" y="170" width="28" height="10" rx="5" fill="#000" stroke="none" />
    <text x="82" y="178" font-size="5" text-anchor="middle" stroke="none" fill="#fff">Monthly</text>
    <!-- save button -->
    <rect x="8" y="184" width="104" height="16" rx="4" fill="#000" stroke="none" />
    <text x="60" y="195" font-size="7" font-weight="600" text-anchor="middle" stroke="none" fill="#fff">Save Reminder</text>
    <text x="60" y="228" font-size="11" font-weight="600" text-anchor="middle" stroke="none" fill="#000">6. Add Reminder</text>
    <text x="60" y="242" font-size="10" text-anchor="middle" stroke="none" fill="#666">Bottom sheet form</text>
  </g>

  <!-- arrow from Reminders list → Notification (up/across) -->
  <!-- Notification at far right -->
  <!-- arrow 6 → 7 (from add sheet, after save → notification fires) -->
  <line x1="644" y1="272" x2="672" y2="272" stroke="#000" stroke-dasharray="4 3" stroke-width="1.5" />
  <polygon points="672,272 666,268 666,276" fill="#000" stroke="none" />

  <!-- Screen 7: Notification (x=680, y=168) -->
  <g transform="translate(680, 168)">
    <rect width="120" height="208" rx="10" fill="#fff" stroke="#000" stroke-width="1.5" />
    <!-- dark lock screen -->
    <rect x="2" y="2" width="116" height="204" rx="9" fill="#1a1a2e" stroke="none" />
    <!-- clock -->
    <text x="60" y="56" font-size="22" font-weight="200" text-anchor="middle" stroke="none" fill="#fff">9:41</text>
    <text x="60" y="72" font-size="6" text-anchor="middle" stroke="none" fill="#ccc">Mon, June 30</text>
    <!-- notification card -->
    <rect x="8" y="88" width="104" height="60" rx="8" fill="#fff" fill-opacity="0.92" stroke="none" />
    <rect x="14" y="96" width="16" height="16" rx="4" fill="#e6e6e6" stroke="none" />
    <text x="22" y="108" font-size="8" font-weight="700" text-anchor="middle" stroke="none" fill="#000">₹</text>
    <text x="36" y="102" font-size="5" font-weight="600" stroke="none" fill="#666">EMI Reminder</text>
    <text x="36" y="112" font-size="5" stroke="none" fill="#999">just now</text>
    <text x="14" y="124" font-size="6" font-weight="600" stroke="none" fill="#000">SBI Home due tomorrow!</text>
    <text x="14" y="134" font-size="5" stroke="none" fill="#555">₹32,450 due 1st July</text>
    <!-- action buttons -->
    <rect x="14" y="140" width="40" height="10" rx="4" fill="#000" stroke="none" />
    <text x="34" y="148" font-size="5" text-anchor="middle" stroke="none" fill="#fff">Pay Now</text>
    <rect x="60" y="140" width="44" height="10" rx="4" fill="#e6e6e6" stroke="none" />
    <text x="82" y="148" font-size="5" text-anchor="middle" stroke="none" fill="#000">Remind Later</text>
    <!-- swipe hint -->
    <text x="60" y="186" font-size="6" text-anchor="middle" stroke="none" fill="#aaa">Swipe up to unlock</text>
    <!-- home indicator -->
    <rect x="44" y="196" width="32" height="2" rx="1" fill="#555" stroke="none" />
    <text x="60" y="228" font-size="11" font-weight="600" text-anchor="middle" stroke="none" fill="#000">7. Notification</text>
    <text x="60" y="242" font-size="10" text-anchor="middle" stroke="none" fill="#666">Lock screen alert</text>
  </g>

  <!-- legend -->
  <g transform="translate(840, 100)">
    <text x="0" y="14" font-size="12" font-weight="700" stroke="none" fill="#000">Legend</text>
    <line x1="0" y1="28" x2="40" y2="28" stroke="#000" stroke-width="1.5" />
    <polygon points="40,28 34,24 34,32" fill="#000" stroke="none" />
    <text x="52" y="32" font-size="12" stroke="none" fill="#666">Primary navigation</text>
    <line x1="0" y1="52" x2="40" y2="52" stroke="#000" stroke-dasharray="4 3" stroke-width="1.5" />
    <polygon points="40,52 34,48 34,56" fill="#000" stroke="none" />
    <text x="52" y="56" font-size="12" stroke="none" fill="#666">Branch / optional flow</text>
    <text x="0" y="80" font-size="12" font-weight="700" stroke="none" fill="#000">User flows:</text>
    <text x="0" y="96" font-size="11" stroke="none" fill="#666">A  Launch → Dashboard → Calculator → Results</text>
    <text x="0" y="112" font-size="11" stroke="none" fill="#666">B  Dashboard → Reminders → Add Reminder</text>
    <text x="0" y="128" font-size="11" stroke="none" fill="#666">C  WorkManager fires → Notification on lock screen</text>
    <text x="0" y="144" font-size="11" stroke="none" fill="#666">D  Notification tap → Deep link to Reminders screen</text>
  </g>

</svg>
